<svg id="visual" viewBox="0 0 900 450" width="900" height="450" xmlns="http://www.w3.org/2000/svg" xmlns:xlink="http://www.w3.org/1999/xlink" version="1.1"><rect x="0" y="0" width="900" height="450" fill="#ffffff"></rect><path d="M0 315L21.5 310.5C43 306 86 297 128.8 291.8C171.7 286.7 214.3 285.3 257.2 290.2C300 295 343 306 385.8 305.5C428.7 305 471.3 293 514.2 296C557 299 600 317 642.8 325.7C685.7 334.3 728.3 333.7 771.2 331.7C814 329.7 857 326.3 878.5 324.7L900 323L900 451L878.5 451C857 451 814 451 771.2 451C728.3 451 685.7 451 642.8 451C600 451 557 451 514.2 451C471.3 451 428.7 451 385.8 451C343 451 300 451 257.2 451C214.3 451 171.7 451 128.8 451C86 451 43 451 21.5 451L0 451Z" fill="#dbffff"></path><path d="M0 345L21.5 341.7C43 338.3 86 331.7 128.8 329.5C171.7 327.3 214.3 329.7 257.2 329.2C300 328.7 343 325.3 385.8 319.5C428.7 313.7 471.3 305.3 514.2 309.3C557 313.3 600 329.7 642.8 335.5C685.7 341.3 728.3 336.7 771.2 331.5C814 326.3 857 320.7 878.5 317.8L900 315L900 451L878.5 451C857 451 814 451 771.2 451C728.3 451 685.7 451 642.8 451C600 451 557 451 514.2 451C471.3 451 428.7 451 385.8 451C343 451 300 451 257.2 451C214.3 451 171.7 451 128.8 451C86 451 43 451 21.5 451L0 451Z" fill="#a7cfce"></path><path d="M0 329L21.5 330C43 331 86 333 128.8 334.3C171.7 335.7 214.3 336.3 257.2 342.3C300 348.3 343 359.7 385.8 359.3C428.7 359 471.3 347 514.2 344C557 341 600 347 642.8 350C685.7 353 728.3 353 771.2 351C814 349 857 345 878.5 343L900 341L900 451L878.5 451C857 451 814 451 771.2 451C728.3 451 685.7 451 642.8 451C600 451 557 451 514.2 451C471.3 451 428.7 451 385.8 451C343 451 300 451 257.2 451C214.3 451 171.7 451 128.8 451C86 451 43 451 21.5 451L0 451Z" fill="#76a0a0"></path><path d="M0 387L21.5 389.5C43 392 86 397 128.8 398C171.7 399 214.3 396 257.2 391C300 386 343 379 385.8 374.7C428.7 370.3 471.3 368.7 514.2 372.8C557 377 600 387 642.8 391.5C685.7 396 728.3 395 771.2 395C814 395 857 396 878.5 396.5L900 397L900 451L878.5 451C857 451 814 451 771.2 451C728.3 451 685.7 451 642.8 451C600 451 557 451 514.2 451C471.3 451 428.7 451 385.8 451C343 451 300 451 257.2 451C214.3 451 171.7 451 128.8 451C86 451 43 451 21.5 451L0 451Z" fill="#467474"></path><path d="M0 422L21.5 418.5C43 415 86 408 128.8 405.8C171.7 403.7 214.3 406.3 257.2 407.7C300 409 343 409 385.8 409.2C428.7 409.3 471.3 409.7 514.2 409.7C557 409.7 600 409.3 642.8 408.7C685.7 408 728.3 407 771.2 405.2C814 403.3 857 400.7 878.5 399.3L900 398L900 451L878.5 451C857 451 814 451 771.2 451C728.3 451 685.7 451 642.8 451C600 451 557 451 514.2 451C471.3 451 428.7 451 385.8 451C343 451 300 451 257.2 451C214.3 451 171.7 451 128.8 451C86 451 43 451 21.5 451L0 451Z" fill="#134b4b"></path></svg>